<?xml version="1.0" encoding="utf-8"?>
<!-- Generator: Adobe Illustrator 26.5.2, SVG Export Plug-In . SVG Version: 6.00 Build 0)  -->
<svg version="1.1" id="レイヤー_1" xmlns="http://www.w3.org/2000/svg" xmlns:xlink="http://www.w3.org/1999/xlink" x="0px"
	 y="0px" viewBox="0 0 100 100" style="enable-background:new 0 0 100 100;" xml:space="preserve">
<g id="left">
	<path d="M28.3,68.3l2.3-11.1l-3.1-2l-2.6,12.1c-0.8-0.1-1.6-0.2-2.4-0.2C13.4,67.1,6,74.5,6,83.6c0,9.1,7.4,16.4,16.4,16.4
		c9.1,0,16.4-7.4,16.4-16.4C38.8,76.6,34.4,70.7,28.3,68.3z M22.4,96.4c-7,0-12.8-5.7-12.8-12.8c0-7,5.7-12.8,12.8-12.8
		c0.5,0,1,0.1,1.4,0.1l-3.2,12.2l3.5,0.9l3.2-12.2c4.7,2,7.9,6.5,7.9,11.8C35.2,90.6,29.5,96.4,22.4,96.4z"/>
	<path d="M81,71c5.3,1.6,9.1,6.6,9.1,12.4c-0.1,7.1-5.8,12.8-12.8,12.8s-12.8-5.7-12.8-12.8c0-5.9,4-10.8,9.4-12.3l-0.2-3.5
		c-7.3,1.7-12.8,8.2-12.8,16c0,9.1,7.4,16.4,16.4,16.4c9.1,0,16.4-7.4,16.4-16.4c0-7.9-5.2-14.4-12.4-16.2"/>
	<path d="M74.6,85.1H80l0.8-12.5l0.2-3.7l0.5-7.9c2.2-1.4,3.6-3.8,3.6-6.6V35.1c0-4.3-3.5-7.8-7.8-7.8c-2.9,0-5.4,1.6-6.7,3.9
		l-4,5.1c-0.4,0.5-1,0.7-1.6,0.6l-8.8-3.6c0.8,1.9,0,6.1,0,6.1l11,3.4c0.7,0.3,1.4,0.1,1.9-0.5l0.4-0.5v10.7
		c-0.3,3.2,0.1,5.5,2.7,7.7c0.3,0.3,0.6,0.5,1.2,0.8"/>
	<path d="M77.7,25.3c3.6,0,6.6-2.9,6.6-6.6s-2.9-6.6-6.6-6.6c-3.6,0-6.6,2.9-6.6,6.6S74.1,25.3,77.7,25.3z"/>
	<path d="M48.5,85.8h5.4l0.8-12.5l0.2-3.7l0.5-7.9c2.2-1.4,3.6-3.8,3.6-6.6V35.8c0-4.3-3.5-7.8-7.8-7.8c-2.9,0-5.4,1.6-6.7,3.9
		l-4,5.1c-0.4,0.5-1,0.7-1.6,0.6l-6.2-1.2c0.8,1.9,3.7,5.7,3.7,5.7l4.7,1.5c0.7,0.3,1.4,0.1,1.9-0.5l0.4-0.5v10.7
		c0,3.6,0.2,5.4,2.7,7.7c0.3,0.3,0.6,0.5,1.2,0.8"/>
	<path d="M51.4,25.3c3.6,0,6.6-2.9,6.6-6.6s-2.9-6.6-6.6-6.6c-3.6,0-6.6,2.9-6.6,6.6S47.8,25.3,51.4,25.3z"/>
</g>
</svg>
