<?xml version="1.0" encoding="utf-8"?>
<!-- Generator: Adobe Illustrator 26.5.2, SVG Export Plug-In . SVG Version: 6.00 Build 0)  -->
<svg version="1.1" id="レイヤー_1" xmlns="http://www.w3.org/2000/svg" xmlns:xlink="http://www.w3.org/1999/xlink" x="0px"
	 y="0px" viewBox="0 0 100 100" style="enable-background:new 0 0 100 100;" xml:space="preserve">
<g id="left">
	<path d="M81.4,67.6l0.5-7.9c2.2-1.4,3.6-3.8,3.6-6.6V33.8c0-4.3-3.5-7.8-7.8-7.8c-2.9,0-5.4,1.6-6.7,3.9L67,35
		c-0.4,0.5-1,0.7-1.6,0.6l-6.3-1.2c-2.6-2.1-6.3-2.6-9.4-0.9c-2,1.1-3.4,3-3.9,5.1c-0.1,0.2-1.8,9.3-1.8,9.3
		c-0.1,0.6-0.6,1.2-1.2,1.3l-14.3,4.4l-3.6,13.7c-0.8-0.1-1.6-0.2-2.4-0.2C13.4,67.1,6,74.5,6,83.6c0,9.1,7.4,16.4,16.4,16.4
		c9.1,0,16.4-7.4,16.4-16.4c0-7-4.4-12.9-10.5-15.3l3.3-12.7l16.1-1.7c0.8-0.1,1.4-0.6,1.5-1.4l0.4-2l6.5,11.5l-7.1,3.2
		c-0.9,0.4-1.4,1.3-1.3,2.3L50.4,91h3.3l1.5-18.4c0.1-0.8,0.6-1.6,1.4-1.9l10.6-4.4c0.3-0.1,0.5-0.3,0.7-0.5
		c2.7-1.5,4.2-4.3,4.2-7.2c0.4,0.4,0.9,0.8,1.4,1.2l0.5,7.9c-7.3,1.7-12.8,8.2-12.8,16c0,9.1,7.4,16.4,16.4,16.4
		c9.1,0,16.4-7.4,16.4-16.4C94,75.8,88.6,69.4,81.4,67.6z M35.2,83.6c0,7-5.7,12.8-12.8,12.8c-7,0-12.8-5.7-12.8-12.8
		c0-7,5.7-12.8,12.8-12.8c0.5,0,1,0.1,1.4,0.1l-3.2,12.2l3.5,0.9l3.2-12.2C32,73.8,35.2,78.3,35.2,83.6z M62.7,39.7l4.9,1.9
		c0.7,0.3,1.4,0.1,1.9-0.5l0.4-0.5v11.7L62.7,39.7z M77.6,96.3c-7,0-12.8-5.7-12.8-12.8c0-5.9,4-10.8,9.4-12.3l0.8,12.6h5.4
		l0.8-12.5c5.3,1.6,9.2,6.4,9.2,12.2C90.3,90.6,84.6,96.3,77.6,96.3z"/>
	<path d="M48.6,31.7c3.3-1.9,4.5-6.1,2.6-9.5s-6.1-4.5-9.5-2.6c-3.3,1.9-4.5,6.1-2.6,9.5C41,32.4,45.2,33.5,48.6,31.7z"/>
	<path d="M77.6,23.9c3.6,0,6.6-2.9,6.6-6.6s-2.9-6.6-6.6-6.6c-3.6,0-6.6,2.9-6.6,6.6S74,23.9,77.6,23.9z"/>
</g>
</svg>
